<svg id="b05a6369-67c7-4001-9b85-a83fbbd225d4" xmlns="http://www.w3.org/2000/svg" viewBox="0 0 692 499.88"><defs><style>.cls-1{fill:#ccc;}.cls-2{fill:#3f3d56;}.cls-3{fill:#fff;}.cls-4{fill:#2f2e41;}.cls-5{fill:#ffb8b8;}.cls-6{fill:#6c63ff;}.cls-7{fill:#f2f2f2;}.cls-8{fill:#e6e6e6;}.cls-9{fill:#ff6584;}</style></defs><path class="cls-1" d="M691,496H1a1,1,0,0,1,0-2H691a1,1,0,0,1,0,2Z"/><path class="cls-1" d="M622.7,321.64h-406a6.5,6.5,0,1,0,0,13h11.5v155.5a6.5,6.5,0,0,0,13,0l.1-155.5H597.2v155.5a6.5,6.5,0,1,0,13,0V338.07l1.9-3.43h10.6a6.5,6.5,0,0,0,0-13Z"/><path class="cls-2" d="M441.79,325h-123a9,9,0,0,1-9-9V248.35a9,9,0,0,1,9-9h123a9,9,0,0,1,9,9v67.71A9,9,0,0,1,441.79,325Z"/><path class="cls-3" d="M441.79,246.28h-123a2.09,2.09,0,0,0-2.07,2.07v67.71a2.07,2.07,0,0,0,2.07,2.07h123a2.06,2.06,0,0,0,2.07-2.07V248.35A2.07,2.07,0,0,0,441.79,246.28Z"/><path class="cls-4" d="M390.79,294.22s-14.72-3.39-22.82,2.83,10.31,20.35,10.31,20.35Z"/><circle class="cls-5" cx="381.02" cy="273.92" r="13.89"/><path class="cls-4" d="M370.29,254.43a9.9,9.9,0,0,1,9.12-4.86,19.24,19.24,0,0,1,5.52,1.55l9.08,3.54c2.35.92,4.92,2,5.94,4.34.94,2.15.24,4.62-.48,6.85l-3.39,10.59a32.58,32.58,0,0,0-1.93-7,10.79,10.79,0,0,0-4.7-5.36c-2.36-1.21-5.14-1.19-7.79-1.06-3.75.18-7.82.66-10.49,3.3a10.92,10.92,0,0,0-2.76,5.4,32.18,32.18,0,0,0-.58,6.11,50.8,50.8,0,0,1-3.87-8.29,20.62,20.62,0,0,1-1.44-6.72,9.4,9.4,0,0,1,2.17-6.38,6.19,6.19,0,0,1,6.23-2Z"/><path class="cls-6" d="M414.18,306.26a2.47,2.47,0,0,0-2.07-1.79l-.1-.06-20.73-11.62a2.66,2.66,0,0,0-3.53.91l-5.67,9.18-8.54-8.54-.13-.13a2.64,2.64,0,0,0-3.38-.3l-17,11.93h-.09a3.63,3.63,0,0,0-3,3.39l-.44,8.89h68Z"/><path class="cls-2" d="M452.16,316.75H439a1.38,1.38,0,0,0-1.38-1.38H433.5a1.38,1.38,0,0,0-1.38,1.38H428a1.38,1.38,0,0,0-1.39-1.38h-4.14a1.38,1.38,0,0,0-1.38,1.38h-4.15a1.38,1.38,0,0,0-1.38-1.38h-4.15a1.38,1.38,0,0,0-1.38,1.38h-4.14a1.38,1.38,0,0,0-1.39-1.38h-4.14a1.38,1.38,0,0,0-1.38,1.38h-4.15a1.38,1.38,0,0,0-1.38-1.38h-4.15a1.38,1.38,0,0,0-1.38,1.38h-4.14a1.38,1.38,0,0,0-1.38-1.38h-4.15a1.38,1.38,0,0,0-1.38,1.38H372.7a1.38,1.38,0,0,0-1.38-1.38h-4.14a1.38,1.38,0,0,0-1.39,1.38h-4.14a1.38,1.38,0,0,0-1.38-1.38h-4.15a1.38,1.38,0,0,0-1.38,1.38h-4.15a1.38,1.38,0,0,0-1.38-1.38h-4.14a1.38,1.38,0,0,0-1.39,1.38h-4.14a1.38,1.38,0,0,0-1.38-1.38H334a1.38,1.38,0,0,0-1.38,1.38h-4.15a1.38,1.38,0,0,0-1.38-1.38H323a1.38,1.38,0,0,0-1.38,1.38H308.45a4.15,4.15,0,0,0,0,8.29H452.16a4.15,4.15,0,0,0,0-8.29Z"/><path class="cls-7" d="M287.08,292.68V320.2h-69a13.77,13.77,0,1,1-1-27.52h69.92Z"/><path class="cls-6" d="M288.77,320a1.05,1.05,0,0,1-1.06,1.06H216.89a14.51,14.51,0,1,1,0-29h70.82a1.06,1.06,0,1,1,0,2.12H216.89a12.39,12.39,0,0,0,0,24.77h70.82A1.06,1.06,0,0,1,288.77,320Z"/><path class="cls-1" d="M287.08,299H213a.21.21,0,0,1,0-.42h74.11a.21.21,0,0,1,.21.21A.21.21,0,0,1,287.08,299Z"/><path class="cls-1" d="M287.08,304.11H213a.21.21,0,0,1-.21-.21.21.21,0,0,1,.21-.21h74.11a.21.21,0,1,1,0,.42Z"/><path class="cls-1" d="M287.08,309.19H213a.21.21,0,0,1-.21-.21.21.21,0,0,1,.21-.21h74.11a.21.21,0,1,1,0,.42Z"/><path class="cls-1" d="M287.08,314.28H213a.21.21,0,0,1-.21-.21.21.21,0,0,1,.21-.22h74.11a.21.21,0,0,1,.21.22A.23.23,0,0,1,287.08,314.28Z"/><path class="cls-7" d="M274.08,263.68V291.2h-69a13.77,13.77,0,0,1-1-27.52h69.92Z"/><path class="cls-2" d="M275.77,291a1.05,1.05,0,0,1-1.06,1.06H203.89a14.51,14.51,0,1,1,0-29h70.82a1.06,1.06,0,1,1,0,2.12H203.89a12.39,12.39,0,1,0,0,24.77h70.82A1.06,1.06,0,0,1,275.77,291Z"/><path class="cls-1" d="M274.08,270H200a.21.21,0,0,1,0-.42h74.11a.21.21,0,0,1,.21.21A.21.21,0,0,1,274.08,270Z"/><path class="cls-1" d="M274.08,275.11H200a.21.21,0,0,1-.21-.21.21.21,0,0,1,.21-.21h74.11a.21.21,0,1,1,0,.42Z"/><path class="cls-1" d="M274.08,280.19H200a.21.21,0,0,1-.21-.21.21.21,0,0,1,.21-.21h74.11a.21.21,0,0,1,0,.42Z"/><path class="cls-1" d="M274.08,285.28H200a.21.21,0,0,1-.21-.21.21.21,0,0,1,.21-.22h74.11a.21.21,0,0,1,.21.22A.23.23,0,0,1,274.08,285.28Z"/><path class="cls-1" d="M354.3,418V394a4,4,0,0,0-4-4h-91a4,4,0,0,0-4,4v24Z"/><rect class="cls-1" x="255.3" y="427.04" width="99" height="31"/><path class="cls-1" d="M255.3,467v24a4,4,0,0,0,4,4h91a4,4,0,0,0,4-4V467Z"/><circle class="cls-3" cx="304.3" cy="405.04" r="3"/><circle class="cls-3" cx="304.3" cy="445.04" r="3"/><circle class="cls-3" cx="304.46" cy="484.2" r="3"/><path class="cls-7" d="M343.08,362.68V390.2h-69a13.77,13.77,0,1,1-1-27.52h69.92Z"/><path class="cls-2" d="M344.77,390a1.05,1.05,0,0,1-1.06,1.06H272.89a14.51,14.51,0,0,1,0-29h70.84a1.06,1.06,0,1,1,0,2.12H272.89a12.39,12.39,0,0,0,0,24.77h70.82A1.06,1.06,0,0,1,344.77,390Z"/><path class="cls-1" d="M343.08,369H269a.21.21,0,0,1,0-.42h74.11a.21.21,0,0,1,.21.21.21.21,0,0,1-.21.21Z"/><path class="cls-1" d="M343.08,374.11H269a.21.21,0,0,1-.21-.21.21.21,0,0,1,.21-.21h74.11a.21.21,0,1,1,0,.42Z"/><path class="cls-1" d="M343.08,379.19H269a.21.21,0,0,1-.21-.21.21.21,0,0,1,.21-.21h74.11a.21.21,0,1,1,0,.42Z"/><path class="cls-1" d="M343.08,384.28H269a.21.21,0,0,1-.21-.21.21.21,0,0,1,.21-.22h74.11a.21.21,0,0,1,.21.22.23.23,0,0,1-.21.21Z"/><path class="cls-8" d="M250.11,183V7.52A7.53,7.53,0,0,1,257.63,0H396.36a7.52,7.52,0,0,1,7.52,7.52V183a7.52,7.52,0,0,1-7.52,7.52H257.63A7.53,7.53,0,0,1,250.11,183ZM257.63,1.67a5.86,5.86,0,0,0-5.85,5.85V183a5.86,5.86,0,0,0,5.85,5.85H396.36a5.85,5.85,0,0,0,5.85-5.85V7.52a5.86,5.86,0,0,0-5.85-5.85Z"/><path class="cls-6" d="M334.78,80.6v-36a3.76,3.76,0,0,1,3.76-3.76h30.53a3.76,3.76,0,0,1,3.76,3.76v36a3.76,3.76,0,0,1-3.76,3.76H338.54A3.76,3.76,0,0,1,334.78,80.6Z"/><path class="cls-1" d="M275.44,97.31v-36a3.76,3.76,0,0,1,3.76-3.76h30.54a3.76,3.76,0,0,1,3.76,3.76v36a3.76,3.76,0,0,1-3.76,3.76H279.2A3.76,3.76,0,0,1,275.44,97.31Z"/><path class="cls-9" d="M323.08,148.29v-36a3.77,3.77,0,0,1,3.76-3.76h30.53a3.77,3.77,0,0,1,3.76,3.76v36a3.76,3.76,0,0,1-3.76,3.76H326.84A3.76,3.76,0,0,1,323.08,148.29Z"/><path class="cls-2" d="M505.56,313H474.14a2,2,0,0,0-.86.2l-7.93,4a1.45,1.45,0,0,0-.76,1.9,1.41,1.41,0,0,0,.76.76l7.93,4a2,2,0,0,0,.86.2h31.42a1.64,1.64,0,0,0,1.74-1.53v-7.94A1.65,1.65,0,0,0,505.56,313Z"/><path class="cls-6" d="M507.3,314.57v7.94a1.64,1.64,0,0,1-1.74,1.53H499.3V313h6.26A1.65,1.65,0,0,1,507.3,314.57Z"/><path class="cls-5" d="M505.33,253.64a11,11,0,0,1,14.46,5.75,11.66,11.66,0,0,1,.43,1.17,11.8,11.8,0,0,1,.32,1.43l43.94,21.79L574.64,277l12.66,14.57-15.53,12.61a11.14,11.14,0,0,1-13.3.51L513.89,273.9a8.84,8.84,0,0,1-1,.37,11,11,0,0,1-13.71-7.34c-.12-.4-.22-.81-.3-1.22a12,12,0,0,1-.16-1.34A11,11,0,0,1,505.33,253.64Z"/><path class="cls-2" d="M596.84,387.79h-48c0,1.38-49.48,2.5-49.48,2.5a13.33,13.33,0,0,0-2.11,2,12.39,12.39,0,0,0-2.9,8v2a12.5,12.5,0,0,0,12.5,12.5h90a12.5,12.5,0,0,0,12.5-12.5v-2A12.52,12.52,0,0,0,596.84,387.79Z"/><rect class="cls-2" x="544.62" y="414.3" width="13" height="84"/><path class="cls-2" d="M507.62,497.84c0,1.4,19.7.54,44,.54s44,.86,44-.54-19.7-12.54-44-12.54S507.62,496.43,507.62,497.84Z"/><polygon class="cls-5" points="519.35 487.99 507.09 487.99 501.26 456.19 519.36 456.2 519.35 487.99"/><path class="cls-4" d="M522.48,499.88H483v-.5A15.39,15.39,0,0,1,498.34,484h24.14Z"/><path class="cls-4" d="M501,468.28l-24.44-54.81a20.08,20.08,0,0,1,8.81-25.79l53-28.42,24.19-2.06,22.31-2,.16.27c.21.35,5,8.64,1.76,17.72-2.46,6.9-8.85,12.28-19,16-23.72,8.69-51.11,16.12-61.79,18.91a3.5,3.5,0,0,0-2.41,4.56l22.71,51a4.5,4.5,0,0,1-2.68,5.77,4.76,4.76,0,0,1-1.13.26l-17,1.23a3,3,0,0,1-.43,0A4.49,4.49,0,0,1,501,468.28Z"/><polygon class="cls-5" points="525.35 487.99 513.09 487.99 507.26 456.19 525.36 456.2 525.35 487.99"/><path class="cls-4" d="M528.48,499.88H489v-.5A15.39,15.39,0,0,1,504.34,484h24.14Z"/><path class="cls-4" d="M508,471.28l-24.44-54.81a20.08,20.08,0,0,1,8.81-25.79l53-28.42,24.19-2.06,22.31-2,.16.27c.21.35,5,8.64,1.76,17.72-2.46,6.9-8.85,12.28-19,16-23.72,8.69-51.11,16.12-61.79,18.91a3.5,3.5,0,0,0-2.41,4.56l22.71,51a4.5,4.5,0,0,1-2.68,5.77,4.76,4.76,0,0,1-1.13.26l-17,1.23a3,3,0,0,1-.43,0A4.49,4.49,0,0,1,508,471.28Z"/><path class="cls-1" d="M495.83,303.84a167.55,167.55,0,0,1-24.07-44.93,4.31,4.31,0,0,1,2-5.18l35.15-18.83a4.23,4.23,0,0,1,3.72-.15,4.33,4.33,0,0,1,2.46,2.88,102.27,102.27,0,0,0,22.45,41.9,4.29,4.29,0,0,1-1.15,6.66L501.27,305A4.31,4.31,0,0,1,495.83,303.84Z"/><path class="cls-3" d="M498.23,302a1.3,1.3,0,0,0,1.62.34L535,283.55a1.25,1.25,0,0,0,.65-.9,1.29,1.29,0,0,0-.32-1.13,105.36,105.36,0,0,1-23.11-43.12,1.3,1.3,0,0,0-.76-.9,1.24,1.24,0,0,0-1.11.05l-35.14,18.83a1.29,1.29,0,0,0-.62,1.53A164.47,164.47,0,0,0,498.23,302Z"/><path class="cls-6" d="M612.59,298.82l-27.52,10.46-6.72-18.67a11.18,11.18,0,0,1,5-13.5h0a11.17,11.17,0,0,1,14.26,2.79Z"/><path class="cls-6" d="M542.58,372.78a5,5,0,0,1-2.08-3.55c-3.53-32.91-1.07-58.66,7.51-78.73a25,25,0,0,1,16.56-14.18l22.25-1.13.12.06a26,26,0,0,1,14.22,27.59c-7.16,18.86-13.15,38.5-8.58,54.34a5.16,5.16,0,0,1-.49,4,4.9,4.9,0,0,1-3.11,2.31L546.6,373.56a5,5,0,0,1-4-.78Z"/><circle class="cls-5" cx="579.4" cy="242.32" r="24.56"/><path class="cls-1" d="M511.24,261.78l-19.14,8.45a3,3,0,0,1-4-1.54l-.48-1.07a3,3,0,0,1,1.54-4l19.14-8.45a3,3,0,0,1,3.95,1.54l.48,1.07A3,3,0,0,1,511.24,261.78Z"/><path class="cls-1" d="M518.24,274.78l-19.14,8.45a3,3,0,0,1-4-1.54l-.48-1.07a3,3,0,0,1,1.54-4l19.14-8.45a3,3,0,0,1,3.95,1.54l.48,1.07A3,3,0,0,1,518.24,274.78Z"/><path class="cls-5" d="M533,325.55l-42.68-33.66a8.89,8.89,0,0,1-1,.3,11,11,0,1,1,7.84-14.42,11.88,11.88,0,0,1,.36,1.2,10.15,10.15,0,0,1,.22,1.45l42.49,24.51,10.57-6.09,11.71,15.33-16.42,11.7A10.92,10.92,0,0,1,533,325.55Z"/><path class="cls-6" d="M567.69,319l-24.35-16.56,11.44-16.21a11.17,11.17,0,0,1,13.93-3.64h0a11.17,11.17,0,0,1,5.89,13.29Z"/><path class="cls-4" d="M570.39,238.67c-6.31,4.32-14.6,8.76-21,4.16-4.23-3-5.56-8.62-3.85-13.53,3.09-8.83,11.57-12.71,19.68-15.69,10.55-3.88,22-7,32.91-4.18s20.51,13.31,18.54,24.37c-1.58,8.89-10,16.29-8.77,25.25s11.33,13.75,20.28,15.36,19,2.13,25.39,8.56c8.2,8.2,6.15,22.85-1.57,31.51s-19.36,12.58-30.65,15.25c-15,3.53-31.13,5.39-45.33-.48s-25.26-21.65-21.14-36.46c1.73-6.25,5.83-11.54,9.78-16.68s8-10.53,9.48-16.84c1.25-5.26.32-11.37-3.16-15.31a4.43,4.43,0,0,1-.6-5.19Z"/><path class="cls-8" d="M109.07,358a39.07,39.07,0,0,1-37.72-6.65C58.14,340.26,54,322,50.63,305.08q-5-25-10-50l20.87,14.37c15,10.34,30.36,21,40.75,36s14.93,35.4,6.58,51.6"/><path class="cls-7" d="M107.29,418.58c2.11-15.39,4.28-31,2.8-46.53-1.32-13.81-5.53-27.3-14.11-38.36a63.81,63.81,0,0,0-16.37-14.84c-1.64-1-3.15,1.56-1.52,2.59a60.67,60.67,0,0,1,24,29c5.23,13.29,6.07,27.77,5.17,41.89-.55,8.54-1.7,17-2.86,25.49a1.54,1.54,0,0,0,1,1.84,1.51,1.51,0,0,0,1.85-1Z"/><path class="cls-8" d="M86.94,391.35a28.76,28.76,0,0,1-25,12.93c-12.69-.6-23.26-9.45-32.78-17.86L1,361.56l18.63-.89c13.4-.64,27.15-1.24,39.91,2.9S84,377.64,86.37,390.85"/><path class="cls-7" d="M113.26,427.42c-10.17-18-22-38-43-44.37a47.76,47.76,0,0,0-18.1-1.87c-1.92.16-1.44,3.12.48,3a44.64,44.64,0,0,1,28.89,7.64C89.63,397.33,96,405,101.34,413.21c3.29,5,6.23,10.22,9.18,15.43.94,1.67,3.69.47,2.74-1.22Z"/><path class="cls-7" d="M129.55,446.36a21.79,21.79,0,0,0-13.34-18.24v-10.4H98.76v10.73a21.74,21.74,0,0,0-12.61,17.91L82,494h51.61Z"/></svg>