<svg id="a751cec9-7d0e-4c8a-a2d9-3a6c65a20454" xmlns="http://www.w3.org/2000/svg" viewBox="0 0 799 667.14"><defs><style>.cls-1{fill:#6c63ff;}.cls-2{fill:#2f2e41;}.cls-3{fill:#ffb8b8;}.cls-4{fill:#3f3d56;}.cls-5{fill:#ccc;}.cls-6{fill:#f2f2f2;}.cls-7{fill:#e6e6e6;}.cls-8{opacity:0.1;isolation:isolate;}.cls-9{fill:#8985a8;}</style></defs><path class="cls-1" d="M649,630.2H164l.22-51.42c.55-130.12,104.41-237.33,234.5-239.55H403a245.4,245.4,0,0,1,85.75,15.4c92.06,34.29,153.84,121.39,158,219.53Z" transform="translate(0 0.03)"/><rect class="cls-2" y="630.23" width="799" height="2"/><polygon class="cls-2" points="398.29 400.24 419.66 415.78 441.03 598.4 491.54 598.4 474.06 390.52 404.12 363.32 398.29 400.24"/><path class="cls-2" d="M308.92,341.92s-5.83,66.06,17.48,68,112.69-19.43,112.69-19.43L481.83,542l64.11-33s-38.86-171-62.17-180.68-101-29.14-101-29.14l-56.34,9.71Z" transform="translate(0 0.03)"/><path class="cls-2" d="M448.8,594.48s-11.66,44.69-3.89,48.57a140.69,140.69,0,0,1,13.6,7.77V643s9.72,9.72,9.72,17.49,52.45,9.71,52.45,0-1.94-21.37-11.65-27.2-21.38-38.86-21.38-38.86Z" transform="translate(0 0.03)"/><polygon class="cls-2" points="505.14 514.86 509.02 551.78 522.63 575.09 555.65 538.17 530.4 497.38 505.14 514.86"/><path class="cls-2" d="M536.22,551.74s7.16-24.46,14.27-21.94,34.3,27.77,34.3,27.77l19.43,11.66s38.86,3.88,27.2,15.54S577,612,557.6,604.2s-23.32-9.72-23.32-9.72l-5.83,3.89-23.31-5.83,3.86-40.8S514.85,569.23,536.22,551.74Z" transform="translate(0 0.03)"/><circle class="cls-3" cx="374.97" cy="54.42" r="44.68"/><path class="cls-3" d="M346.8,80.62s3.89,40.8-7.77,40.8,1.94,50.51,33,50.51,42.74-60.23,42.74-60.23-21.37-7.77-17.48-33S346.8,80.62,346.8,80.62Z" transform="translate(0 0.03)"/><path class="cls-4" d="M343.71,118.3l-16.34,7L283.05,144a9,9,0,0,0-5.44,9.3l16.74,148.74s-17.49,36.92,9.71,38.86l3.89,13.6L339,317.64l116.57-3.89,1.94-188.45-53.33-21.08S397,144.33,343.71,118.3Z" transform="translate(0 0.03)"/><path class="cls-4" d="M289.49,149.59l-7.18-2.06A5.94,5.94,0,0,0,275,151.6q-.09.35-.15.69l-19,119.51a41.45,41.45,0,0,0,4,25.92C265.73,308.86,278,319,303.09,307l17.49-126.28Z" transform="translate(0 0.03)"/><path class="cls-4" d="M435.2,122.39l23.31,3.88,64.11,89.37,5.83,15.54,36.92-11.65s-2,17.48,17.48,15.54c0,0-23.31,64.11-71.88,44.68S446.86,202,446.86,202Z" transform="translate(0 0.03)"/><polygon class="cls-5" points="462.4 161.28 374.97 126.3 371.09 137.96 411.89 172.93 462.4 161.28"/><path class="cls-2" d="M348.07,57.24c1.65-.44,1.89-2.63,1.95-4.34.29-9.14,5.8-18.52,14.55-21.19a24.41,24.41,0,0,1,10.31-.56,39.05,39.05,0,0,1,14,4.66c2.28,1.28,4.52,2.82,7.1,3.21,1.71.26,9.1,2.41,10.8,2.71,3.74.67,7.21,4,10.8,2.77,3.43-1.19,4.19-5.64,4.28-9.27.18-8.27-6.1-19.72-11.63-25.88-4.2-4.67-10.52-6.82-16.7-7.94A110.34,110.34,0,0,0,371.67,0c-9.89.17-20.06.94-29,5.22s-16.41,12.79-16.84,22.67c-.09,2.06.13,4.13-.05,6.18-.42,5-3.08,9.53-4.33,14.4a26.4,26.4,0,0,0,3.68,21.06c3.31,4.87,16.55,9.29,16.36,15.17,2.39-2.48-3.25-5-.86-7.45a5.89,5.89,0,0,0,1.75-7.2l-2.54-9.9c-.46-1.82-.92-3.78-.22-5.52C342.37,48,345.32,58,348.07,57.24Z" transform="translate(0 0.03)"/><polygon class="cls-6" points="371.09 137.96 334.18 281.73 477.94 332.24 561.48 262.3 613.94 104.93 528.45 167.1 371.09 137.96"/><rect class="cls-7" x="446.83" y="100.55" width="1.94" height="144.67" transform="translate(166.4 561.8) rotate(-75.22)"/><rect class="cls-7" x="442.96" y="110.27" width="1.94" height="144.67" transform="translate(154.11 565.29) rotate(-75.22)"/><rect class="cls-7" x="441.01" y="119.98" width="1.94" height="144.67" transform="translate(143.27 570.65) rotate(-75.22)"/><rect class="cls-7" x="439.07" y="129.69" width="1.94" height="144.67" transform="translate(132.45 576) rotate(-75.22)"/><rect class="cls-7" x="437.13" y="139.41" width="1.94" height="144.67" transform="translate(121.59 581.36) rotate(-75.22)"/><rect class="cls-7" x="435.18" y="149.12" width="1.94" height="144.67" transform="translate(110.75 586.71) rotate(-75.22)"/><rect class="cls-7" x="433.24" y="158.83" width="1.94" height="144.67" transform="translate(99.93 592.07) rotate(-75.22)"/><rect class="cls-7" x="431.29" y="168.55" width="1.94" height="144.67" transform="translate(89.07 597.43) rotate(-75.22)"/><rect class="cls-7" x="429.36" y="178.27" width="1.94" height="144.67" transform="translate(78.24 602.79) rotate(-75.22)"/><path class="cls-3" d="M311.85,243.68s43.7-26.1,63.12-8.61-56.34,42.74-56.34,42.74Z" transform="translate(0 0.03)"/><path class="cls-4" d="M264.23,256.44,320.58,235s-9.72,36.91,9.71,38.85l-27.2,33S248.69,307,264.23,256.44Z" transform="translate(0 0.03)"/><polygon class="cls-7" points="412.49 255.67 487.25 280.87 469.56 319.44 394.8 294.24 412.49 255.67"/><polygon class="cls-5" points="544.97 173.9 601.31 131.16 585.77 183.62 527.48 226.36 544.97 173.9"/><rect class="cls-7" x="510.59" y="223.45" width="70.72" height="1.94" transform="translate(-24.65 375.58) rotate(-37.18)"/><rect class="cls-7" x="506.69" y="244.81" width="70.72" height="1.94" transform="translate(-38.36 377.56) rotate(-37.18)"/><path class="cls-3" d="M577,237s48.57-29.14,17.49-40.8-31.09,33-31.09,33S561.48,239,577,237Z" transform="translate(0 0.03)"/><polygon class="cls-8" points="292.4 171.96 290.46 247.73 320.57 239.13 296.29 239.96 292.4 171.96"/><path class="cls-9" d="M80.41,595.93c6.07,22.45,26.87,36.36,26.87,36.36s11-22.5,4.89-45S85.29,551,85.29,551,74.34,573.48,80.41,595.93Z" transform="translate(0 0.03)"/><path class="cls-4" d="M89.33,591.11C106,607.33,108,632.27,108,632.27s-25-1.37-41.65-17.59-18.7-41.16-18.7-41.16S72.67,574.88,89.33,591.11Z" transform="translate(0 0.03)"/><rect class="cls-6" x="626" y="379.23" width="30" height="30"/><rect class="cls-6" x="506" y="39.23" width="30" height="30"/><circle class="cls-6" cx="159" cy="328.23" r="15"/></svg>