<svg id="b5c524f0-66c4-4225-a3aa-c25cef687e0c" xmlns="http://www.w3.org/2000/svg" viewBox="0 0 740.67 597.18"><defs><style>.cls-1{fill:#e6e6e6;}.cls-2{fill:#3f3d56;}.cls-3{fill:#ffb8b8;}.cls-4{fill:#2f2e41;}.cls-5{fill:#6c63ff;}.cls-6{fill:#ccc;}</style></defs><path class="cls-1" d="M422,528.31c-5.12-7.17-12.06-12.42-20.77-14.39-7.6-1.71-15.42-1.42-23.14-1.36l-97.7.76c-8.36.06-16.38,7.31-16,16s7,16.07,16,16l85.85-.67c6.75,0,13.5-.17,20.25-.15,1.51,0,3,.09,4.54.1h.82l.14,0c.79.22,1.6.37,2.4.57-.28,0,.51.51.91.67a5.54,5.54,0,0,0,.37.6c.27.51,1.07,2.06,1.11,2a72.11,72.11,0,0,1,3,9.39c1.86,7,2.27,8.52,2.54,15.13.34,8.36,7.12,16.4,16,16,8.38-.37,16.36-7,16-16C433.64,557.92,431,541,422,528.31Z" transform="translate(-0.01 0)"/><path class="cls-1" d="M286.09,564.41c-1.84-11.12-3.64-22.24-5.51-33.36s-5.77-21.6-14.55-29c-2.34-2-4.77-3.83-7.21-5.67-.86-.64-1.72-1.29-2.57-1.95l-.12-.1-.36-.3c-3.66-3.1-7.19-6.33-10.55-9.77q-4.49-4.57-8.58-9.54c-.68-.83-1.35-1.66-2-2.51l-1.13-1.45c-.38-.52-1.07-1.46-1.18-1.63-.78-1.09-1.54-2.2-2.29-3.32a155.7,155.7,0,0,1-13.19-24.11c-.36-.84-.72-1.68-1.07-2.52l-.37-1c-.74-2-1.48-4.07-2.16-6.14q-2.16-6.57-3.71-13.33c-.51-2.23-1-4.47-1.39-6.72-.21-1.15-.4-2.31-.59-3.47,0-.2-.21-1.45-.31-2.16s-.23-2-.25-2.16c-.11-1.18-.22-2.35-.31-3.52-.2-2.64-.34-5.29-.41-7.93q-.19-7.07.25-14.13c.16-2.64.4-5.28.69-7.91,0-.16,0-.29.05-.41s0-.25.06-.42q.31-2.17.69-4.35a159.94,159.94,0,0,1,3.74-16.32q1.09-3.79,2.37-7.55c.37-1.11.77-2.21,1.17-3.31,0,.07,1.18-3,1.2-3.12,4.79-11.33,12.63-21.66,12.65-34.53,0-8.71-7.37-17.06-16-16.66a16.62,16.62,0,0,0-16,16.66c0,.2,0,.36,0,.52l-.2.7c-.94,2-2.09,4-3.11,6-2.81,5.42-5.21,11-7.49,16.7a159.7,159.7,0,0,0-8.53,28.63,182.26,182.26,0,0,0-1,65c6.21,37.82,26.66,74,55.11,98.34,2.46,2.11,5,4.15,7.54,6.15,1.06.83,2.13,1.64,3.2,2.45.5.38,2.6,2,1.68,1.23,2,1.69,2.81,2.55,3.32,3.79.08.29.18.68.31,1.21.36,1.41.7,2.81,1,4.24,2.47,12.45,4.19,25.11,6.26,37.64,1.42,8.61,12,14.21,19.68,11.63C283.83,581.9,287.61,573.64,286.09,564.41Z" transform="translate(-0.01 0)"/><path class="cls-2" d="M423.57,596.71a25.38,25.38,0,0,1-25.44-25.25V553.21c-19.11,2.14-84.55,1.64-103.3-1.37v18.89a25.44,25.44,0,0,1-50.88,0V533.64a163.31,163.31,0,0,1-84-142.39c0-49.83,22.58-96.32,62-127.54a164.12,164.12,0,0,1,89.32-35.17c4.43-.35,8.88-.52,13.24-.52,15.35,0,84.62,2.37,102,7.37l39.62-39.32a4.16,4.16,0,0,1,4.55-.91,4.1,4.1,0,0,1,2.59,3.85v6.25l7.71-7.64a4.16,4.16,0,0,1,4.55-.91,4.11,4.11,0,0,1,2.59,3.85v69.86A162.77,162.77,0,0,1,449,538.29v33.17A25.38,25.38,0,0,1,423.57,596.71Zm-23.44-45.77v20.52a23.44,23.44,0,0,0,46.88,0V537l.57-.28a162.39,162.39,0,0,0,66.53-58.18,160.33,160.33,0,0,0-27.7-207l-.33-.3V200.56a2.12,2.12,0,0,0-1.34-2,2.16,2.16,0,0,0-2.39.47l-11.12,11V199a2.12,2.12,0,0,0-1.34-2,2.15,2.15,0,0,0-2.39.48L427,237.65l-.57-.18c-16.16-5.05-86.51-7.45-102-7.45-4.31,0-8.71.17-13.08.51a162.12,162.12,0,0,0-88.24,34.75c-38.9,30.84-61.2,76.75-61.2,126a161.29,161.29,0,0,0,83.48,140.92l.52.29v38.27a23.44,23.44,0,0,0,46.88,0V549.44l1.18.22c16.86,3.18,87.83,3.68,105,1.43Z" transform="translate(-0.01 0)"/><path class="cls-3" d="M288,119.12,177.26,152.4a13.88,13.88,0,0,0,8,26.59l96.91-29.13,2-.61a67.5,67.5,0,0,1,8.29-29.86,6,6,0,0,0-2-.52A6.29,6.29,0,0,0,288,119.12Z" transform="translate(-0.01 0)"/><path class="cls-4" d="M183.33,186.08a7,7,0,0,1-6.64-4.8l-6.92-20.89a7,7,0,0,1,4.44-8.85h0l90.13-29.87a7,7,0,0,1,8.85,4.44h0l6.93,20.9a7,7,0,0,1-4.2,8.76l-.25.08-90.13,29.87A6.91,6.91,0,0,1,183.33,186.08Z" transform="translate(-0.01 0)"/><path class="cls-2" d="M352.13,82a70,70,0,0,0-70,67.85c0,.71,0,1.43,0,2.15a70,70,0,1,0,70-70Zm0,138a68.07,68.07,0,0,1-68-68q0-1.39.06-2.76A68,68,0,1,1,352.13,220Z" transform="translate(-0.01 0)"/><path class="cls-1" d="M411.13,152a59,59,0,0,1-118,0c0-1.87.09-3.71.26-5.53A59,59,0,0,1,411.13,152Z" transform="translate(-0.01 0)"/><path class="cls-5" d="M369.7,155.93a14,14,0,0,0-5.47-4.33,52.69,52.69,0,0,0-8.22-2.7V132.84a23.34,23.34,0,0,1,11.69,5.33l3.26-6.95a21.68,21.68,0,0,0-6.36-3.93,30.91,30.91,0,0,0-8.07-2.07v-8.14H349v8.22a20.65,20.65,0,0,0-8.25,2.77,16.38,16.38,0,0,0-5.59,5.48,13.74,13.74,0,0,0-2,7.29,12.43,12.43,0,0,0,2.29,7.8,14.49,14.49,0,0,0,5.7,4.52,53.18,53.18,0,0,0,8.36,2.77v15.39a25,25,0,0,1-13.91-5.55l-3.26,7a24.49,24.49,0,0,0,7.44,4.22,34,34,0,0,0,9.21,1.92v8.07h7.55v-8.22a19.57,19.57,0,0,0,11.21-5.14,13.63,13.63,0,0,0,4.18-10.1A12.11,12.11,0,0,0,369.7,155.93Zm-20.2-8.73a14.59,14.59,0,0,1-5-2.7,5.32,5.32,0,0,1-1.78-4.18,6.71,6.71,0,0,1,1.82-4.81,9.11,9.11,0,0,1,5-2.59Zm11.25,21.28A8.6,8.6,0,0,1,356,171V157.71a13.3,13.3,0,0,1,4.74,2.37,4.64,4.64,0,0,1,1.63,3.7,6.85,6.85,0,0,1-1.63,4.7Z" transform="translate(-0.01 0)"/><path class="cls-4" d="M186.55,270.77a7,7,0,0,1-6.78-5.21L176,251.29a7,7,0,0,1,5-8.56l118.94-31.42a7,7,0,0,1,8.55,5l3.19,12.09-.6.05A160.11,160.11,0,0,0,227,260.3l-.18.08-38.46,10.16A7,7,0,0,1,186.55,270.77Z" transform="translate(-0.01 0)"/><path class="cls-2" d="M166.85,341.26a98.14,98.14,0,0,1-39.12-14.79,95.61,95.61,0,0,1-16.18-13.23c-4.83-4.93-9.44-10.52-11.84-17.08a25.27,25.27,0,0,1,.34-18.77,24.3,24.3,0,0,1,13.16-13.13c6-2.39,13.23-2.64,19.06,0a17,17,0,0,1,7,5.6A11.28,11.28,0,0,1,141,273.6a7.49,7.49,0,0,1,.09,3.76,9,9,0,0,1-4.77,5.72,24.1,24.1,0,0,1-8.15,2.49c-2.86.39-7,.74-9.27-1.55a4.74,4.74,0,0,1-1.09-1.61,3,3,0,0,1-.17-1.46c0,.22.13-.47.12-.45s-.19.35,0,0a2.82,2.82,0,0,1,.24-.36c-.08.1-.25.26.05,0a1.92,1.92,0,0,1,.92-.56l.41-.12c.36-.09-.35,0,0,0h.42c.36,0-.35-.1,0,0l.39.11c.29.09-.2-.21,0,0s-.24-.25,0,0,.24.26.35.39a2.36,2.36,0,0,0,3.32,0,2.41,2.41,0,0,0,0-3.31c-2.31-2.87-6.88-2.16-9.22.26-3,3.09-1.8,8,1.1,10.68,3.29,3.05,7.94,3.26,12.16,2.75a29.7,29.7,0,0,0,10.27-2.9,14.39,14.39,0,0,0,7-7.59A13.16,13.16,0,0,0,144.23,269c-3.73-7-11.45-10.6-19.09-11.22A29.78,29.78,0,0,0,103.32,265,30.17,30.17,0,0,0,93.44,285c-.67,8,2.43,15.76,7,22.22a84.61,84.61,0,0,0,16.77,17.35A102.54,102.54,0,0,0,160,344.79c1.86.39,3.73.71,5.61,1a2.43,2.43,0,0,0,2.89-1.64,2.36,2.36,0,0,0-1.64-2.88Z" transform="translate(-0.01 0)"/><path class="cls-6" d="M390.23,239.38q-30.66-.44-61.13,1.56c-6.94.45-13,2.91-13,7,0,3.45,6,7.49,13,7q30.45-2,61.13-1.55C406.91,253.68,406.9,239.62,390.23,239.38Z" transform="translate(-0.01 0)"/><path class="cls-2" d="M360,252.75c-2.21,0-54.11-.08-54.11-7.25s51.9-7.25,54.11-7.25,54.11.08,54.11,7.25S362.23,252.75,360,252.75Zm-52.08-7.25c1.42,2.17,20.5,5.25,52.08,5.25s50.66-3.08,52.08-5.25c-1.42-2.17-20.5-5.25-52.08-5.25s-50.66,3.08-52.08,5.25Z" transform="translate(-0.01 0)"/><path class="cls-2" d="M524.67,441.2c11.49-.32,25.79-.72,36.8-8.76a28.27,28.27,0,0,0,11.12-21.11c.23-6.35-2.07-11.9-6.46-15.61-5.75-4.86-14.15-6-23.21-3.34l9.38-68.55-6.88-.94-11,80.58,5.75-2.64c6.67-3.05,15.82-4.61,21.5.2a12.19,12.19,0,0,1,4,10.06,21.32,21.32,0,0,1-8.28,15.73c-8.57,6.26-20,7.07-32.89,7.43Z" transform="translate(-0.01 0)"/><rect class="cls-2" x="468.2" y="329.74" width="37.43" height="6.95"/><path class="cls-4" d="M203.49,302.74a7,7,0,0,1-6.91-5.92l-2.28-14.58a7,7,0,0,1,5.83-8l121.53-19a7,7,0,0,1,8,5.83l2.28,14.58a7,7,0,0,1-5.83,8l-121.53,19A6.68,6.68,0,0,1,203.49,302.74Z" transform="translate(-0.01 0)"/><circle class="cls-3" cx="153.18" cy="80.85" r="51"/><path class="cls-4" d="M182.06,94.05a12,12,0,0,0,4.37-2.68,8.14,8.14,0,0,0,2.26-6.48,5.46,5.46,0,0,0-2.52-4.16c-1.84-1.14-4.28-1.09-6.74,0l-.29-19.91-2,0,.34,23.4,1.52-1c1.76-1.15,4.3-2,6.13-.87a3.54,3.54,0,0,1,1.57,2.69A6.12,6.12,0,0,1,185,90c-2.16,2.16-5.37,2.88-9,3.54l.36,2A32.06,32.06,0,0,0,182.06,94.05Z" transform="translate(-0.01 0)"/><rect class="cls-4" x="189.18" y="60.27" width="10.77" height="2" transform="translate(-6.99 29.82) rotate(-8.61)"/><rect class="cls-4" x="155.56" y="65.36" width="10.77" height="2" transform="translate(-8.13 24.85) rotate(-8.61)"/><path class="cls-4" d="M186.89,301.85a9,9,0,0,1-8.43-5.86l-35.17-94.17A46.53,46.53,0,0,1,170.58,142l28.59-10.68a9,9,0,0,1,6.88.24,8.84,8.84,0,0,1,4.67,5l65.14,123a9,9,0,0,1-5.2,11.62l-.06,0L190,301.27A8.92,8.92,0,0,1,186.89,301.85Z" transform="translate(-0.01 0)"/><path class="cls-1" d="M190.5,134.58,255.13,221l-43.74-85.52a8.07,8.07,0,0,0-10.34-4.85h0Z" transform="translate(-0.01 0)"/><path class="cls-3" d="M292.83,200.22l-115.4-7.44a13.88,13.88,0,0,1,1.78-27.7h0l115.39,7.44a6.5,6.5,0,0,1,6.07,6.9h0l-.95,14.73a6.5,6.5,0,0,1-6.9,6.07Z" transform="translate(-0.01 0)"/><path class="cls-4" d="M262,205h-.46l-94.75-6.11a7,7,0,0,1-6.54-7.43h0l1.62-25.16a7,7,0,0,1,7.44-6.53h0l94.75,6.1a7,7,0,0,1,6.54,7.43L269,198.43a7,7,0,0,1-4.55,6.11A6.92,6.92,0,0,1,262,205Z" transform="translate(-0.01 0)"/><path class="cls-4" d="M152.6,46.94c6.71-5.77,15.93-.61,23.62-1.51C183.58,44.56,189.4,38,190.88,31c1.73-8.19-2.52-16.39-8.78-21.49-6.85-5.59-15.95-7.19-24.57-6.16-9.87,1.19-18.91,5.79-27,11.36a122.14,122.14,0,0,0-21.45,18.17c-5.75,6.35-10.62,13.92-12.18,22.47-1.41,7.77-.33,16.37,4.26,23a24.23,24.23,0,0,0,9.48,7.81c3.93,1.93,8.13,3.31,12,5.5,5.77,3.31,11.37,10.16,9.57,17.29a9.85,9.85,0,0,1-2.23,4.19c-1.29,1.43-3.62-.46-2.33-1.9,2.28-2.52,2.19-5.88,1-8.9a16.28,16.28,0,0,0-7.24-7.95c-4-2.28-8.4-3.69-12.49-5.77a27,27,0,0,1-9.91-8.22c-4.9-6.8-6.37-15.66-5.25-23.86,1.2-8.86,5.75-16.92,11.47-23.68C111.36,25.41,119,19.19,126.8,13.6c8.37-6,17.62-11.06,27.85-12.9,8.87-1.59,18.48-.61,26.24,4.23,7.24,4.51,12.79,12.27,13.34,20.94a22.24,22.24,0,0,1-10.37,20,19.17,19.17,0,0,1-11.41,2.64c-4.26-.27-8.53-1.58-12.82-1.22a9,9,0,0,0-5.27,2.13c-1.46,1.26-3.21-1.18-1.76-2.43Z" transform="translate(-0.01 0)"/><path class="cls-2" d="M739.48,597.18H1.19a1.2,1.2,0,0,1,0-2.39H739.48a1.2,1.2,0,0,1,0,2.39Z" transform="translate(-0.01 0)"/></svg>